<?xml version="1.0" encoding="iso-8859-1"?>
<!-- Generator: Adobe Illustrator 19.1.1, SVG Export Plug-In . SVG Version: 6.00 Build 0)  -->
<svg version="1.1" xmlns="http://www.w3.org/2000/svg" xmlns:xlink="http://www.w3.org/1999/xlink" x="0px" y="0px"
	 viewBox="0 0 160.37 87.06" style="enable-background:new 0 0 160.37 87.06;" xml:space="preserve">
<g id="Purple_x5F_max_x5F_radius">
	<path style="opacity:0.16;fill:#9058E8;" d="M160.37,80.183c0-44.283-35.901-80.183-80.185-80.183l0,0
		C35.901-0.001,0,35.899,0,80.183"/>
</g>
<g id="Purple_x5F_min_x5F_radius">
	<path style="fill:#9058E8;" d="M79.712,80.182l21.054-77.504C94.196,0.938,87.301,0,80.185,0C52.686,0,28.428,13.849,13.984,34.946
		L79.712,80.182z"/>
</g>
<g id="Purple_x5F_hand">
	<path style="fill:#4D4D4D;" d="M75.948,77.383l55.387-48.207L83.772,85.117c-1.973,2.321-5.455,2.603-7.775,0.629
		c-2.321-1.973-2.603-5.454-0.629-7.775C75.542,77.766,75.752,77.556,75.948,77.383z"/>
</g>
</svg>
