<svg id="Layer_1" data-name="Layer 1" xmlns="http://www.w3.org/2000/svg" viewBox="0 0 62.66 62.66" width="300" height="300" ><defs><style>.cls-1{fill:#fff;}</style></defs><title>employee__female_invert</title><path class="cls-1" d="M43.16,43.14a1.64,1.64,0,0,1-.39,1.11,1.2,1.2,0,0,1-.93.45H20.74a1.27,1.27,0,0,1-.88-0.33,1.63,1.63,0,0,1-.51-1.24V36.63a1.52,1.52,0,0,1,.9-1.51l2.93-.85a13.33,13.33,0,0,0,5.26-2.95h-4.7V23.41a7.52,7.52,0,0,1,7.5-7.5h0a7.52,7.52,0,0,1,7.5,7.5v7.92H34.25l0.18,0.16a13.33,13.33,0,0,0,4.92,2.78l3,0.92a1.42,1.42,0,0,1,.84,1.45v6.51Z"/></svg>