<svg id="Layer_1" data-name="Layer 1" xmlns="http://www.w3.org/2000/svg" viewBox="0 0 62.41 62.41" width="300" height="300" ><defs><style>.cls-1{fill:#fff;}</style></defs><title>group_invert</title><path class="cls-1" d="M50.67,35.49A1.26,1.26,0,0,0,50,34.28l-6.57-3.13a5.22,5.22,0,0,0,1.84-2,6.41,6.41,0,0,0,.69-3,6.08,6.08,0,0,0-1.42-4,4.36,4.36,0,0,0-3.46-1.69,3.78,3.78,0,0,0-1.36.24,5.9,5.9,0,0,0-1.18.6A10.6,10.6,0,0,1,39.2,25a9.64,9.64,0,0,1-1.57,5.36q0.3,0.3.57,0.54a3.82,3.82,0,0,0,.57.42l4.28,2a3.76,3.76,0,0,1,1.45,1.36,3.64,3.64,0,0,1,.54,2V42.2h4.52a0.94,0.94,0,0,0,.78-0.39,1.49,1.49,0,0,0,.3-0.93V35.49h0Zm-7.65,1A1.42,1.42,0,0,0,42.18,35l-5.72-2.77L34,31.15a5.85,5.85,0,0,0,1.42-1.24,7,7,0,0,0,1-1.72A11,11,0,0,0,37,26.63a7.16,7.16,0,0,0,.21-1.75,7.06,7.06,0,0,0-.06-0.93A8.47,8.47,0,0,0,37,23a7.11,7.11,0,0,0-2.14-3.74,5.48,5.48,0,0,0-7.38,0,7,7,0,0,0-2.11,3.59,7.67,7.67,0,0,0-.3,2,8.21,8.21,0,0,0,.78,3.5,7.09,7.09,0,0,0,2.47,2.83L26,32.29,20.12,35a1.52,1.52,0,0,0-.9,1.51V43a1.64,1.64,0,0,0,.39,1.11,1.26,1.26,0,0,0,1,.45H41.69a1.2,1.2,0,0,0,.93-0.45A1.64,1.64,0,0,0,43,43V36.51h0Zm-25.79,0a3.64,3.64,0,0,1,.54-2,3.75,3.75,0,0,1,1.45-1.36l4.46-2a3.32,3.32,0,0,0,1-.84,9.19,9.19,0,0,1-1.21-2.53A9.88,9.88,0,0,1,23,24.88a8.87,8.87,0,0,1,.21-2,15.31,15.31,0,0,1,.51-1.78,4,4,0,0,0-2.41-.78A4.36,4.36,0,0,0,17.86,22a6.08,6.08,0,0,0-1.42,4,6.36,6.36,0,0,0,.72,3,5.22,5.22,0,0,0,1.93,2.08L12.4,34.15a1.19,1.19,0,0,0-.66,1.21V40.6a1.49,1.49,0,0,0,.3.93,0.94,0.94,0,0,0,.78.39h4.4V36.51h0v0Z"/></svg>